<svg xmlns="http://www.w3.org/2000/svg" viewBox="0 0 192 192">
  <defs>
    <linearGradient id="bg" x1="0%" y1="0%" x2="100%" y2="100%">
      <stop offset="0%" stop-color="#1E3A8A"/>
      <stop offset="100%" stop-color="#2563EB"/>
    </linearGradient>
    <linearGradient id="body" x1="0%" y1="0%" x2="100%" y2="100%">
      <stop offset="0%" stop-color="#3B82F6"/>
      <stop offset="100%" stop-color="#1D4ED8"/>
    </linearGradient>
  </defs>
  <!-- Fundo arredondado -->
  <rect width="192" height="192" rx="42" fill="url(#bg)"/>
  <!-- Corpo do Resolvio (simplificado para ícone) -->
  <!-- Capa -->
  <path d="M58 105 C42 112 38 148 40 178 L96 186 L152 178 C154 148 150 112 134 105 Z" fill="#6D28D9" opacity="0.9"/>
  <!-- Corpo -->
  <rect x="54" y="102" width="84" height="62" rx="14" fill="url(#body)"/>
  <!-- Checkmark no peito -->
  <path d="M72 134 L83 145 L120 112" stroke="white" stroke-width="8" stroke-linecap="round" stroke-linejoin="round" fill="none" opacity="0.9"/>
  <!-- Pescoço -->
  <rect x="80" y="88" width="32" height="18" rx="9" fill="url(#body)"/>
  <!-- Cabeça -->
  <rect x="36" y="20" width="120" height="72" rx="20" fill="url(#body)"/>
  <!-- Tela -->
  <rect x="47" y="28" width="98" height="56" rx="12" fill="#1E3A8A"/>
  <!-- Olho esquerdo -->
  <circle cx="78" cy="54" r="13" fill="#60A5FA"/>
  <circle cx="80" cy="56" r="7" fill="#1E40AF"/>
  <circle cx="83" cy="51" r="3.5" fill="white" opacity="0.9"/>
  <!-- Olho direito -->
  <circle cx="114" cy="54" r="13" fill="#60A5FA"/>
  <circle cx="116" cy="56" r="7" fill="#1E40AF"/>
  <circle cx="119" cy="51" r="3.5" fill="white" opacity="0.9"/>
  <!-- Sorriso -->
  <path d="M80 68 Q96 77 112 68" stroke="#60A5FA" stroke-width="4" fill="none" stroke-linecap="round"/>
  <!-- Antena -->
  <rect x="88" y="6" width="16" height="16" rx="8" fill="url(#body)"/>
  <circle cx="96" cy="6" r="10" fill="#F59E0B"/>
  <text x="96" y="11" text-anchor="middle" font-size="11" fill="#92400E" font-weight="900" font-family="system-ui">R</text>
</svg>
